# xmcd
#
# Track frame offsets: 
#        164
#        17587
#        33641
#        52214
#        67535
#        79215
#        96009
#        115145
#        129053
#        143742
#        161916
#        178742
#
# Disc length: 2603 seconds
#
# Revision: 0
# Processed by: cddbd v1.5.2PL0 Copyright (c) Steve Scherf et al.
# Submitted via: ExactAudioCopyFreeDBPlugin 1.0
#
DISCID=990a290c
DTITLE=Seasick Steve - You Can't Teach An Old Dog New Tricks
DYEAR=2011
DGENRE=Blues
TTITLE0=Treasures
TTITLE1=You Can't Teach An Old Dog New Tricks
TTITLE2=Burnin' Up
TTITLE3=Don't Know Why She Love Me But She Do
TTITLE4=Have Mercy on The Lonely
TTITLE5=Whiskey Ballad
TTITLE6=Back In The Doghouse
TTITLE7=Underneath A Blue And Cloudless Sky
TTITLE8=What A Way To Go
TTITLE9=Party
TTITLE10=Day's Gone
TTITLE11=It's A Long Long Way
EXTD=
EXTT0=
EXTT1=
EXTT2=
EXTT3=
EXTT4=
EXTT5=
EXTT6=
EXTT7=
EXTT8=
EXTT9=
EXTT10=
EXTT11=
PLAYORDER=
